<svg id="visual" viewBox="0 0 900 600" width="900" height="600" xmlns="http://www.w3.org/2000/svg" xmlns:xlink="http://www.w3.org/1999/xlink" version="1.1"><rect x="0" y="0" width="900" height="600" fill="#FFFFFF"></rect><defs><linearGradient id="grad1_0" x1="33.3%" y1="0%" x2="100%" y2="100%"><stop offset="20%" stop-color="#ffffff" stop-opacity="1"></stop><stop offset="80%" stop-color="#ffffff" stop-opacity="1"></stop></linearGradient></defs><defs><linearGradient id="grad2_0" x1="0%" y1="0%" x2="66.7%" y2="100%"><stop offset="20%" stop-color="#ffffff" stop-opacity="1"></stop><stop offset="80%" stop-color="#ffffff" stop-opacity="1"></stop></linearGradient></defs><g transform="translate(900, 0)"><path d="M0 486.7C-69.8 486.9 -139.6 487 -186.3 449.7C-232.9 412.4 -256.4 337.6 -285 285C-313.5 232.3 -347.1 201.9 -381.6 158C-416 114.2 -451.4 57.1 -486.7 0L0 0Z" fill="#4FACF7"></path></g><g transform="translate(0, 600)"><path d="M0 -486.7C50.8 -448.3 101.6 -409.9 162.3 -391.7C222.9 -373.5 293.5 -375.6 344.2 -344.2C394.9 -312.7 425.8 -247.8 446.2 -184.8C466.7 -121.9 476.7 -60.9 486.7 0L0 0Z" fill="#4FACF7"></path></g></svg>